HIERARCHY
ROOT Hips
{
	OFFSET 0.000000 35.082581 0.000000
	CHANNELS 6 Xposition Yposition Zposition Xrotation Yrotation Zrotation 
	JOINT Spine
	{
		OFFSET 0.000000 6.876099 0.125700
		CHANNELS 3 Xrotation Yrotation Zrotation
		JOINT Spine1
		{
			OFFSET 0.000000 5.730043 0.104720
			CHANNELS 3 Xrotation Yrotation Zrotation
			JOINT Spine1_split
			{
				OFFSET 0.000000 5.730043 0.104720
				CHANNELS 3 Xrotation Yrotation Zrotation
				JOINT Spine2
				{
					OFFSET 0.000000 5.730043 0.104720
					CHANNELS 3 Xrotation Yrotation Zrotation
					JOINT Neck
					{
						OFFSET 0.000000 10.314075 0.188496
						CHANNELS 3 Xrotation Yrotation Zrotation
						JOINT Head
						{
							OFFSET 0.000000 7.643700 -2.377400
							CHANNELS 3 Xrotation Yrotation Zrotation
							JOINT HeadTop_End
							{
								OFFSET 0.000000 43.788605 -13.619600
								CHANNELS 3 Xrotation Yrotation Zrotation
								End Site
								{
									OFFSET 0.000000 0.000000 0.000000
								}
							}
						}
					}
					JOINT LeftShoulder
					{
						OFFSET 2.196100 4.412489 0.087492
						CHANNELS 3 Xrotation Yrotation Zrotation
						JOINT LeftShoulder_split
						{
							OFFSET 2.196100 4.412489 0.087492
							CHANNELS 3 Xrotation Yrotation Zrotation
							JOINT LeftArm
							{
								OFFSET 8.771219 -2.981674 -0.026999
								CHANNELS 3 Xrotation Yrotation Zrotation
								JOINT LeftForeArm
								{
									OFFSET 8.512804 0.000000 -0.000000
									CHANNELS 3 Xrotation Yrotation Zrotation
									JOINT LeftHand
									{
										OFFSET 18.484802 0.000000 -0.000000
										CHANNELS 3 Xrotation Yrotation Zrotation
										JOINT LeftHandThumb1
										{
											OFFSET 2.499420 -1.158070 2.653252
											CHANNELS 3 Xrotation Yrotation Zrotation
											JOINT LeftHandThumb2
											{
												OFFSET 2.370079 -1.368366 1.368366
												CHANNELS 3 Xrotation Yrotation Zrotation
												JOINT LeftHandThumb3
												{
													OFFSET 2.676727 -1.545410 1.545409
													CHANNELS 3 Xrotation Yrotation Zrotation
													JOINT LeftHandThumb4
													{
														OFFSET 1.692226 -0.977005 0.977007
														CHANNELS 3 Xrotation Yrotation Zrotation
														End Site
														{
															OFFSET 0.000000 0.000000 0.000000
														}
													}
												}
											}
										}
										JOINT LeftHandIndex1
										{
											OFFSET 7.924831 -0.457527 2.345128
											CHANNELS 3 Xrotation Yrotation Zrotation
											JOINT LeftHandIndex2
											{
												OFFSET 3.643303 0.000000 0.000000
												CHANNELS 3 Xrotation Yrotation Zrotation
												JOINT LeftHandIndex3
												{
													OFFSET 3.810799 0.000000 0.000000
													CHANNELS 3 Xrotation Yrotation Zrotation
													JOINT LeftHandIndex4
													{
														OFFSET 2.403702 0.000000 0.000000
														CHANNELS 3 Xrotation Yrotation Zrotation
														End Site
														{
															OFFSET 0.000000 0.000000 0.000000
														}
													}
												}
											}
										}
										JOINT LeftHandMiddle1
										{
											OFFSET 8.563995 0.000000 -0.000000
											CHANNELS 3 Xrotation Yrotation Zrotation
											JOINT LeftHandMiddle2
											{
												OFFSET 3.861618 0.000000 0.000000
												CHANNELS 3 Xrotation Yrotation Zrotation
												JOINT LeftHandMiddle3
												{
													OFFSET 3.701603 0.000000 0.000000
													CHANNELS 3 Xrotation Yrotation Zrotation
													JOINT LeftHandMiddle4
													{
														OFFSET 2.322544 0.000000 0.000000
														CHANNELS 3 Xrotation Yrotation Zrotation
														End Site
														{
															OFFSET 0.000000 0.000000 0.000000
														}
													}
												}
											}
										}
										JOINT LeftHandRing1
										{
											OFFSET 8.426460 -0.424637 -3.286992
											CHANNELS 3 Xrotation Yrotation Zrotation
											JOINT LeftHandRing2
											{
												OFFSET 3.126408 0.000000 0.000000
												CHANNELS 3 Xrotation Yrotation Zrotation
												JOINT LeftHandRing3
												{
													OFFSET 3.085026 0.000000 0.000000
													CHANNELS 3 Xrotation Yrotation Zrotation
													JOINT LeftHandRing4
													{
														OFFSET 1.644005 0.000000 0.000000
														CHANNELS 3 Xrotation Yrotation Zrotation
														End Site
														{
															OFFSET 0.000000 0.000000 0.000000
														}
													}
												}
											}
										}
									}
								}
							}
						}
					}
					JOINT RightShoulder
					{
						OFFSET -2.196100 4.412496 0.070690
						CHANNELS 3 Xrotation Yrotation Zrotation
						JOINT RightShoulder_split
						{
							OFFSET -2.196100 4.412496 0.070690
							CHANNELS 3 Xrotation Yrotation Zrotation
							JOINT RightArm
							{
								OFFSET -8.771282 -2.981682 -0.094208
								CHANNELS 3 Xrotation Yrotation Zrotation
								JOINT RightForeArm
								{
									OFFSET -8.494598 0.000000 0.000000
									CHANNELS 3 Xrotation Yrotation Zrotation
									JOINT RightHand
									{
										OFFSET -18.483803 0.000000 0.000001
										CHANNELS 3 Xrotation Yrotation Zrotation
										JOINT RightHandThumb1
										{
											OFFSET -2.527351 -1.008072 2.575253
											CHANNELS 3 Xrotation Yrotation Zrotation
											JOINT RightHandThumb2
											{
												OFFSET -2.321518 -1.340328 1.340329
												CHANNELS 3 Xrotation Yrotation Zrotation
												JOINT RightHandThumb3
												{
													OFFSET -2.657753 -1.534454 1.534455
													CHANNELS 3 Xrotation Yrotation Zrotation
													JOINT RightHandThumb4
													{
														OFFSET -1.807510 -1.043568 1.043567
														CHANNELS 3 Xrotation Yrotation Zrotation
														End Site
														{
															OFFSET 0.000000 0.000000 0.000000
														}
													}
												}
											}
										}
										JOINT RightHandIndex1
										{
											OFFSET -8.811420 0.015533 2.887987
											CHANNELS 3 Xrotation Yrotation Zrotation
											JOINT RightHandIndex2
											{
												OFFSET -3.537502 0.000000 0.000000
												CHANNELS 3 Xrotation Yrotation Zrotation
												JOINT RightHandIndex3
												{
													OFFSET -3.356201 0.000000 0.000000
													CHANNELS 3 Xrotation Yrotation Zrotation
													JOINT RightHandIndex4
													{
														OFFSET -1.933098 0.000000 0.000000
														CHANNELS 3 Xrotation Yrotation Zrotation
														End Site
														{
															OFFSET 0.000000 0.000000 0.000000
														}
													}
												}
											}
										}
										JOINT RightHandMiddle1
										{
											OFFSET -8.178135 0.000000 0.000000
											CHANNELS 3 Xrotation Yrotation Zrotation
											JOINT RightHandMiddle2
											{
												OFFSET -3.901302 0.000000 0.000000
												CHANNELS 3 Xrotation Yrotation Zrotation
												JOINT RightHandMiddle3
												{
													OFFSET -3.909599 0.000000 0.000000
													CHANNELS 3 Xrotation Yrotation Zrotation
													JOINT RightHandMiddle4
													{
														OFFSET -2.376003 0.000000 0.000000
														CHANNELS 3 Xrotation Yrotation Zrotation
														End Site
														{
															OFFSET 0.000000 0.000000 0.000000
														}
													}
												}
											}
										}
										JOINT RightHandRing1
										{
											OFFSET -7.559013 0.014137 -2.865403
											CHANNELS 3 Xrotation Yrotation Zrotation
											JOINT RightHandRing2
											{
												OFFSET -3.449306 0.000000 0.000000
												CHANNELS 3 Xrotation Yrotation Zrotation
												JOINT RightHandRing3
												{
													OFFSET -3.362106 0.000000 0.000000
													CHANNELS 3 Xrotation Yrotation Zrotation
													JOINT RightHandRing4
													{
														OFFSET -2.076401 0.000000 0.000000
														CHANNELS 3 Xrotation Yrotation Zrotation
														End Site
														{
															OFFSET 0.000000 0.000000 0.000000
														}
													}
												}
											}
										}
									}
								}
							}
						}
					}
				}
			}
		}
	}
	JOINT LeftUpLeg
	{
		OFFSET 10.205400 -3.823500 0.155100
		CHANNELS 3 Xrotation Yrotation Zrotation
		JOINT LeftLeg
		{
			OFFSET 0.708757 -12.982077 0.567790
			CHANNELS 3 Xrotation Yrotation Zrotation
			JOINT LeftFoot
			{
				OFFSET -0.708756 -10.717838 -2.184338
				CHANNELS 3 Xrotation Yrotation Zrotation
				JOINT LeftToeBase
				{
					OFFSET 0.108149 -7.191104 7.560241
					CHANNELS 3 Xrotation Yrotation Zrotation
					JOINT LeftToe_End
					{
						OFFSET 0.070230 0.081724 4.490308
						CHANNELS 3 Xrotation Yrotation Zrotation
						End Site
						{
							OFFSET 0.000000 0.000000 0.000000
						}
					}
				}
			}
		}
	}
	JOINT RightUpLeg
	{
		OFFSET -10.205400 -3.823500 0.005500
		CHANNELS 3 Xrotation Yrotation Zrotation
		JOINT RightLeg
		{
			OFFSET -0.708756 -12.982134 0.610632
			CHANNELS 3 Xrotation Yrotation Zrotation
			JOINT RightFoot
			{
				OFFSET 0.708754 -10.717769 -1.945823
				CHANNELS 3 Xrotation Yrotation Zrotation
				JOINT RightToeBase
				{
					OFFSET -0.108140 -7.191069 7.372968
					CHANNELS 3 Xrotation Yrotation Zrotation
					JOINT RightToe_End
					{
						OFFSET -0.070227 0.081735 4.479403
						CHANNELS 3 Xrotation Yrotation Zrotation
						End Site
						{
							OFFSET 0.000000 0.000000 0.000000
						}
					}
				}
			}
		}
	}
}
MOTION
Frames: 4
Frame Time: 0.016667
27.020245 34.441231 66.476997 -3.469134 42.908532 7.050514 2.663735 -1.065478 -5.175001 -1.325620 -1.163654 0.817525 0.000000 0.000000 0.000000 -1.438975 -1.086684 0.916038 -7.118961 3.300069 1.481924 3.009340 7.256460 -2.336360 -0.000000 -0.000000 -0.000000 1.278787 8.282235 -5.884511 0.000000 0.000000 0.000000 5.487395 -5.716223 -69.262592 10.995044 -23.144463 4.299508 -3.505213 1.553095 -4.566427 10.887873 1.246806 25.518092 -6.107959 25.101693 -7.037446 -9.406649 -1.750295 -3.989120 -0.000006 0.000001 -0.000001 2.273931 2.860333 -7.022258 -2.151804 2.437467 -12.915083 -1.885681 4.814864 -8.697653 0.000003 -0.000000 -0.000001 -1.975892 5.648618 -12.925025 0.258607 5.087089 -31.070315 -0.657303 1.132681 -15.791122 0.000002 0.000001 -0.000001 -4.961700 10.079277 -11.366454 4.009605 4.047733 -37.672619 2.112264 3.154733 -20.008358 -0.000000 0.000001 -0.000002 0.653110 6.246598 2.354889 0.000000 0.000000 0.000000 1.709279 -0.054523 76.942088 10.204134 11.314867 -3.125138 0.035609 4.570844 -3.022552 10.804394 -0.128338 -25.394995 -5.935884 -25.377862 7.041890 -8.629347 0.246788 3.587694 0.000002 0.000001 -0.000002 2.290268 -3.071420 7.871201 -2.151279 -2.429206 14.934075 -1.878401 -4.822651 10.716026 -0.000001 0.000000 -0.000002 -1.974379 -5.650452 14.486240 0.269446 -5.094379 31.329719 -0.661168 -1.135438 16.049789 -0.000001 -0.000000 0.000001 -4.966001 -10.089024 12.710207 4.004659 -4.055504 37.979953 2.122476 -3.152940 20.316381 -0.000002 -0.000003 0.000000 -21.149580 11.863804 -14.097117 29.689825 -9.751774 -0.852181 21.780087 -0.130830 15.508817 -26.914359 0.083478 4.160991 -0.000000 0.000002 -0.000000 -27.148013 12.077354 4.419362 63.364280 -9.876025 -1.322945 25.206239 -5.645543 -8.014599 -47.578838 -5.137237 14.193942 -0.000001 -0.000001 -0.000000 
27.387554 34.560165 67.028450 -3.087009 44.048710 6.302045 3.193837 -1.269227 -5.199503 -1.672385 -1.446840 1.136366 0.000000 0.000000 0.000000 -1.783760 -1.357283 1.239757 -6.992467 3.127428 1.770555 3.081409 7.243100 -2.534712 -0.000001 0.000001 0.000000 1.222380 7.998281 -5.656140 0.000000 0.000000 0.000000 4.902272 -6.661225 -69.184919 10.630481 -23.193306 4.158757 -3.663192 1.608663 -4.129046 10.909306 1.522067 25.549713 -6.151150 25.034107 -7.036816 -9.599621 -2.120123 -4.091472 -0.000000 0.000003 -0.000003 2.269698 2.808442 -6.812886 -2.151597 2.437656 -12.417624 -1.886572 4.815407 -8.200055 -0.000000 -0.000000 0.000000 -1.976489 5.649592 -12.540126 0.258728 5.086678 -31.006525 -0.657458 1.133260 -15.727320 -0.000001 -0.000002 0.000000 -4.961866 10.080330 -11.034825 4.009672 4.047392 -37.596807 2.111948 3.154888 -19.932556 0.000000 -0.000001 -0.000001 0.631583 5.767217 2.506442 0.000000 0.000000 0.000000 2.266433 -0.402040 76.731329 9.995595 11.382981 -3.178011 0.011992 4.430592 -2.802306 10.782464 0.147479 -25.365098 -5.892667 -25.445477 7.042857 -8.441566 -0.125857 3.492234 -0.000000 -0.000001 -0.000004 2.295249 -3.123461 8.080476 -2.151262 -2.429903 15.431629 -1.878147 -4.824044 11.213614 0.000001 0.000000 0.000001 -1.974489 -5.650695 14.871122 0.269484 -5.094373 31.393496 -0.660958 -1.134641 16.113618 -0.000001 0.000001 0.000001 -4.966610 -10.089645 13.041879 4.004884 -4.055856 38.055803 2.122841 -3.153485 20.392189 -0.000000 -0.000002 0.000000 -20.146068 11.735194 -13.298676 30.333669 -10.325018 -1.278122 19.656779 -0.347542 16.087416 -26.646366 0.104237 4.079283 0.000000 -0.000000 0.000000 -30.850079 13.238022 5.011704 63.264470 -10.419558 -1.381069 24.334395 -5.480982 -5.690619 -43.148371 -3.759484 13.681451 0.000001 -0.000004 0.000001 
27.831814 34.657383 67.653618 -2.691318 45.088756 5.438702 3.320063 -1.360066 -4.964510 -1.777615 -1.610051 1.334798 0.000000 0.000000 0.000000 -1.884349 -1.504945 1.444945 -6.959354 2.850364 2.091294 3.091848 7.132216 -2.654660 -0.000001 0.000001 -0.000000 1.160519 7.595433 -5.207604 0.000000 0.000000 0.000000 4.128661 -7.551706 -69.228974 10.365324 -23.115717 4.027308 -3.787328 0.679973 -3.598828 10.930291 1.792549 25.581172 -6.193626 24.967745 -7.036310 -9.790375 -2.483153 -4.193439 0.000001 -0.000002 -0.000004 2.265736 2.757456 -6.607050 -2.151391 2.437948 -11.928494 -1.887636 4.816299 -7.710943 0.000002 -0.000000 -0.000000 -1.977442 5.650756 -12.161672 0.258679 5.086296 -30.943824 -0.657614 1.133825 -15.664571 -0.000001 0.000002 -0.000001 -4.962439 10.081673 -10.708746 4.009755 4.047076 -37.522293 2.111642 3.155003 -19.858001 0.000003 0.000002 0.000001 0.551905 5.166422 2.977089 0.000000 0.000000 0.000000 2.826258 -0.847810 76.289880 9.960798 11.547397 -3.248027 0.025160 3.872506 -2.722492 10.760881 0.418756 -25.335982 -5.850208 -25.511984 7.043871 -8.257941 -0.492757 3.399676 -0.000000 -0.000004 0.000001 2.301344 -3.174555 8.286272 -2.151124 -2.430791 15.920826 -1.878144 -4.826335 11.702724 0.000003 0.000000 -0.000000 -1.974737 -5.651234 15.249516 0.269511 -5.094258 31.456228 -0.660725 -1.134090 16.176364 -0.000003 -0.000001 -0.000001 -4.967231 -10.090641 13.367998 4.005131 -4.056076 38.130344 2.123169 -3.154011 20.466734 0.000001 -0.000002 0.000000 -20.045400 10.948302 -12.542152 31.624845 -10.909765 -1.436051 18.251702 -0.351776 16.371977 -26.693462 0.137282 3.560352 0.000000 0.000004 -0.000000 -34.401822 14.406160 5.877422 62.098769 -10.177101 -1.346958 23.572846 -5.696984 -4.680411 -38.446469 -2.402926 12.882139 -0.000001 0.000002 -0.000000 
28.278944 34.776226 68.236275 -2.372310 46.092087 4.739113 3.404907 -1.463711 -4.704076 -1.781113 -1.770524 1.443604 0.000000 0.000000 0.000000 -1.883107 -1.652038 1.562385 -7.063834 2.589942 2.525420 3.065761 7.112181 -2.915455 -0.000000 0.000002 0.000000 1.118784 7.115242 -4.973873 0.000000 0.000000 0.000000 3.357536 -8.132483 -69.115613 10.372753 -23.221344 4.056510 -3.801008 -0.070274 -3.042807 10.950702 2.056756 25.612163 -6.235106 24.902873 -7.035884 -9.977787 -2.837244 -4.294387 -0.000005 -0.000001 -0.000002 2.262120 2.707671 -6.405981 -2.152503 2.438507 -11.450571 -1.888756 4.817469 -7.233005 0.000001 -0.000001 -0.000001 -1.978378 5.652195 -11.792013 0.258165 5.085938 -30.882489 -0.657768 1.134380 -15.603270 0.000003 0.000001 -0.000005 -4.963233 10.083311 -10.390176 4.009815 4.046810 -37.449453 2.111345 3.155213 -19.785209 0.000001 0.000002 -0.000001 0.499422 4.835786 3.514561 0.000000 0.000000 0.000000 3.199698 -1.335489 75.878634 10.075141 11.516169 -3.432973 -0.002045 3.871202 -2.507604 10.739655 0.683889 -25.307867 -5.808684 -25.576936 7.044973 -8.079424 -0.851717 3.310467 0.000004 -0.000000 0.000001 2.307810 -3.224459 8.487366 -2.151016 -2.431818 16.398758 -1.878138 -4.828522 12.180670 -0.000000 -0.000002 0.000000 -1.975077 -5.651992 15.619256 0.269540 -5.094129 31.517519 -0.660554 -1.133922 16.237668 -0.000000 0.000001 -0.000001 -4.967825 -10.091930 13.686675 4.005386 -4.056326 38.203147 2.123484 -3.154527 20.539584 -0.000001 0.000001 -0.000001 -19.269367 10.427733 -12.022233 32.135388 -11.840022 -1.520151 17.066097 -0.410983 16.736538 -27.066914 0.125488 3.305544 0.000000 -0.000001 -0.000000 -36.159322 15.692380 5.808592 59.561087 -9.590199 -1.125259 21.600601 -5.525645 -1.813850 -35.222179 -1.066226 8.936439 -0.000000 -0.000002 0.000000 
